# xmcd
#
# Track frame offsets: 
#        150
#        17802
#        31700
#        52197
#        69063
#        88813
#        103885
#        125373
#        138626
#        153184
#
# Disc length: 2264 seconds
#
# Revision: 0
# Processed by: cddbd v1.5.2PL0 Copyright (c) Steve Scherf et al.
# Submitted via: ExactAudioCopy v1.0b1
#
DISCID=8008d60a
DTITLE=Stella Parton - Romantic Moments
DYEAR=2001
DGENRE=Country
TTITLE0=Summer Moon
TTITLE1=Like Lovers Do
TTITLE2=I Want to Hold You in My Dreams Tonight
TTITLE3=Smiling
TTITLE4=True to Me
TTITLE5=My Dreams Came True Overnight
TTITLE6=A Woman's Touch
TTITLE7=You Said You Loved Me
TTITLE8=Lie to Linda
TTITLE9=The More The Change
EXTD=
EXTT0=
EXTT1=
EXTT2=
EXTT3=
EXTT4=
EXTT5=
EXTT6=
EXTT7=
EXTT8=
EXTT9=
PLAYORDER=
